<!DOCTYPE svg PUBLIC "-//W3C//DTD SVG 1.1//EN" "http://www.w3.org/Graphics/SVG/1.1/DTD/svg11.dtd">
<!-- Uploaded to: SVG Repo, www.svgrepo.com, Transformed by: SVG Repo Mixer Tools -->
<svg width="800px" height="800px" viewBox="0 0 400 400" fill="none" xmlns="http://www.w3.org/2000/svg">
<g id="SVGRepo_bgCarrier" stroke-width="0"/>
<g id="SVGRepo_tracerCarrier" stroke-linecap="round" stroke-linejoin="round"/>
<g id="SVGRepo_iconCarrier"> <path d="M56 186.13C61.2919 176.598 66.0088 166.819 71.0626 157.108C76.5971 146.479 82.5988 106.951 94.0541 102.292C110.02 95.8017 289.45 103.092 293.843 106.07C309.795 116.882 338.556 186.13 342.998 195.805C343.425 196.735 233.481 195.805 226.455 195.805C173.585 195.805 120.567 190.968 67.891 190.968" stroke="#095550" stroke-opacity="0.9" stroke-width="16" stroke-linecap="round" stroke-linejoin="round"/> <path d="M86.8382 197.651C89.1513 236.179 80.1087 275.385 84.5722 313.307" stroke="#095550" stroke-opacity="0.9" stroke-width="16" stroke-linecap="round" stroke-linejoin="round"/> <path d="M318.349 203.363C320.063 237.142 315.272 302.782 318.349 319.019" stroke="#095550" stroke-opacity="0.9" stroke-width="16" stroke-linecap="round" stroke-linejoin="round"/> <path d="M298.735 130.542C225.71 132.825 150.01 131.686 75.99 131.686" stroke="#095550" stroke-opacity="0.9" stroke-width="16" stroke-linecap="round" stroke-linejoin="round"/> <path d="M328.719 159.1C243.06 159.811 155.493 167.15 70.2781 160.844" stroke="#095550" stroke-opacity="0.9" stroke-width="16" stroke-linecap="round" stroke-linejoin="round"/> <path d="M238.766 125.257C238.766 114.467 241.052 83.4912 243.501 81.369C245.513 79.6256 273.37 81.1531 275.734 81.9423C277.549 82.5519 277.27 97.2754 274.898 126.113" stroke="#095550" stroke-opacity="0.9" stroke-width="16" stroke-linecap="round" stroke-linejoin="round"/> <path d="M118.828 311.728C118.828 291.833 121.623 234.722 124.616 230.809C127.074 227.595 161.122 230.411 164.011 231.867C166.23 232.99 165.889 260.137 162.989 313.306" stroke="#095550" stroke-opacity="0.9" stroke-width="16" stroke-linecap="round" stroke-linejoin="round"/> <path d="M258.215 221.924C263.103 222.552 268.046 222.674 273.043 222.29C280.539 221.714 288.59 221.714 288.59 223.054C288.59 224.394 288.59 228.003 288.59 230.158C288.59 232.314 289.257 255.566 289.257 257.159C289.257 258.751 257.834 258.392 256.429 257.159C255.024 255.925 255.517 240.853 255.517 239.059C255.517 237.264 255.517 234.851 255.517 233.498" stroke="#095550" stroke-opacity="0.9" stroke-width="16" stroke-linecap="round" stroke-linejoin="round"/> <path d="M196.431 224.1C201.626 224.255 206.713 224.133 211.694 223.733C219.165 223.134 227.188 223.134 227.188 224.53C227.188 225.926 227.188 229.684 227.188 231.93C227.188 234.175 227.188 255.161 227.188 256.819C227.188 258.478 226.356 258.478 224.24 258.478C222.124 258.478 197.002 259.763 195.602 258.478C194.203 257.193 194.539 236.586 194.539 234.716C194.539 232.847 194.539 230.333 194.539 228.924" stroke="#095550" stroke-opacity="0.9" stroke-width="16" stroke-linecap="round" stroke-linejoin="round"/> </g>
</svg>